# xmcd
#
# Track frame offsets:
#	150
#	17445
#	38962
#	56115
#	74038
#	93703
#	113768
#	127046
#	146158
#	160940
#	178378
#	195131
#	212631
#	233549
#	250444
#	281769
#
# Disc length: 3769 seconds
#
# Revision: 1
# Processed by: cddbd v1.5.2PL0 Copyright (c) Steve Scherf et al.
# Submitted via: audiograbber 1.83.01
#
DISCID=f30eb710
DTITLE=Sound Choice Karaoke - SC8743
DYEAR=1900
DGENRE=Karaoke
TTITLE0=Keith, Toby - You Shouldn't Kiss Me Like This
TTITLE1=Tritt, Travis - It's A Great Day To Be Alive
TTITLE2=McGraw, Tim - My Next Thirty Years
TTITLE3=Shelton, Blake - Austin
TTITLE4=Lonestar - I'm Already There
TTITLE5=Jackson, Alan - Where I Come From
TTITLE6=Keith, Toby - I'm Just Talkin About Tonight
TTITLE7=Urban, keith - But For The Grace Of God
TTITLE8=Allan, Gary - Right Where I Need To Be
TTITLE9=Chesney, Kenny - Don't Happen Twice
TTITLE10=McGuinn, Mark - Mrs. Steven Rudy
TTITLE11=Diamond Rio - One More Day
TTITLE12=McGraw, Tim and Faith Hill - Angry All The Time
TTITLE13=Brooks and Dunn - Ain't Nothing Bout You
TTITLE14=Soggy Bottom Boys - I Am A Man Of Constant Sorrow
TTITLE15=Data - Data Track
EXTD=
EXTT0=
EXTT1=
EXTT2=
EXTT3=
EXTT4=
EXTT5=
EXTT6=
EXTT7=
EXTT8=
EXTT9=
EXTT10=
EXTT11=
EXTT12=
EXTT13=
EXTT14=
EXTT15=
PLAYORDER=
